<svg width="16" height="14" viewBox="0 0 16 14" fill="none" xmlns="http://www.w3.org/2000/svg">
<path d="M13.9227 7.44725L8.26004 12.8952L2.59736 7.44725M2.59736 7.44725C2.22386 7.09419 1.92965 6.66983 1.73328 6.20089C1.5369 5.73195 1.4426 5.22859 1.45633 4.72251C1.47005 4.21643 1.59149 3.71859 1.81301 3.26034C2.03453 2.8021 2.35133 2.39337 2.74345 2.05989C3.13557 1.72642 3.59453 1.47543 4.09141 1.32272C4.5883 1.17002 5.11235 1.11891 5.63057 1.17261C6.14879 1.22631 6.64995 1.38365 7.10249 1.63474C7.55504 1.88583 7.94916 2.22522 8.26004 2.63155C8.57227 2.22817 8.96684 1.89175 9.41908 1.64332C9.87131 1.3949 10.3715 1.23982 10.8882 1.1878C11.405 1.13578 11.9272 1.18793 12.4223 1.34099C12.9174 1.49406 13.3746 1.74473 13.7653 2.07734C14.1561 2.40994 14.4719 2.81731 14.6932 3.27395C14.9144 3.73059 15.0362 4.22667 15.051 4.73114C15.0657 5.23562 14.9731 5.73762 14.779 6.20574C14.5849 6.67386 14.2934 7.09801 13.9227 7.45165" stroke="#282828" stroke-width="1.14105" stroke-linecap="round" stroke-linejoin="round"/>
</svg>
