<svg width="900" height="366" viewBox="0 0 900 366" fill="none" xmlns="http://www.w3.org/2000/svg">
<path d="M637.49 69.6408C637.49 31.6753 668.267 0.898226 706.233 0.898226H710.186V13.3693C710.186 47.0074 682.917 74.2764 649.279 74.2764H637.49V69.6408Z" stroke="#4B5158" stroke-width="0.96787"/>
<path d="M91.9231 262.19C91.9231 224.224 122.7 193.447 160.666 193.447H164.619V205.918C164.619 239.556 137.35 266.825 103.712 266.825H91.9231V262.19Z" stroke="#4B5158" stroke-width="0.96787"/>
<rect y="0.687534" width="51.8411" height="51.8939" transform="matrix(0.703841 0.710358 -0.703841 0.710358 681.403 193.162)" stroke="#4B5158" stroke-width="0.96787"/>
<path d="M364.763 51.863C364.763 23.7159 387.581 0.898226 415.728 0.898226H437.349V74.1649H364.763V51.863Z" stroke="#4B5158" stroke-width="0.96787"/>
<rect x="826.93" y="0.898226" width="72.5856" height="73.2667" stroke="#4B5158" stroke-width="0.96787"/>
<path d="M546.199 95.5522H618.785V121.809C618.785 147.792 597.721 168.856 571.738 168.856H546.199V95.5522Z" stroke="#4B5158" stroke-width="0.96787"/>
<rect x="727.994" y="95.5522" width="72.5856" height="73.3039" stroke="#4B5158" stroke-width="0.96787"/>
<path d="M826.929 131.845C826.929 111.801 843.178 95.5522 863.222 95.5522C883.266 95.5522 899.515 111.801 899.515 131.845V168.856H826.929V131.845Z" stroke="#4B5158" stroke-width="0.96787"/>
<path d="M491.765 291.342C512.028 291.342 528.454 307.768 528.454 328.031C528.454 348.294 512.028 364.72 491.765 364.72L455.758 364.72L455.758 291.342L491.765 291.342Z" stroke="#4B5158" stroke-width="0.96787"/>
<path d="M546.557 0.898226H619.179V37.928C619.179 57.9821 602.922 74.2393 582.868 74.2393C562.814 74.2393 546.557 57.9822 546.557 37.928V0.898226Z" stroke="#4B5158" stroke-width="0.96787"/>
<path d="M637.663 364.93L645.646 364.93C681.345 364.93 710.286 335.99 710.286 300.29L710.286 291.552L637.663 291.552L637.663 364.93Z" stroke="#4B5158" stroke-width="0.96787"/>
<path d="M553.299 193.447H589.252C609.484 193.447 625.885 209.848 625.885 230.08C625.885 250.313 609.484 266.714 589.252 266.714H553.299V193.447Z" stroke="#4B5158" stroke-width="0.96787"/>
<path d="M546.767 291.344C586.732 291.608 619.091 324.626 619.351 364.609H546.767V291.344Z" stroke="#4B5158" stroke-width="0.96787"/>
<path d="M801.184 360.085C801.184 322.119 770.407 291.342 732.442 291.342H728.599V309.505C728.599 339.979 753.303 364.683 783.777 364.683H801.184V360.085Z" stroke="#4B5158" stroke-width="0.96787"/>
<path d="M826.814 193.447H899.399V230.421C899.399 250.465 883.15 266.714 863.106 266.714C843.063 266.714 826.814 250.465 826.814 230.421V193.447Z" stroke="#4B5158" stroke-width="0.96787"/>
<rect x="826.929" y="291.342" width="72.5856" height="73.2667" stroke="#4B5158" stroke-width="0.96787"/>
<path d="M735.917 230.402C735.917 210.165 752.17 193.768 772.21 193.768C792.249 193.768 808.503 210.165 808.503 230.402C808.503 250.638 792.249 267.035 772.21 267.035C752.17 267.035 735.917 250.638 735.917 230.402Z" stroke="#4B5158" stroke-width="0.96787"/>
<path d="M728.499 37.8531C728.499 17.6168 744.752 1.21975 764.792 1.21975C784.832 1.21975 801.085 17.6168 801.085 37.8531C801.085 58.0894 784.832 74.4865 764.792 74.4865C744.752 74.4865 728.499 58.0894 728.499 37.8531Z" stroke="#4B5158" stroke-width="0.96787"/>
<path d="M637.098 132.506C637.098 112.27 653.351 95.8727 673.39 95.8727C693.43 95.8727 709.683 112.27 709.683 132.506C709.683 152.742 693.43 169.139 673.39 169.139C653.351 169.139 637.098 152.742 637.098 132.506Z" stroke="#4B5158" stroke-width="0.96787"/>
<path d="M0.915179 69.6408C0.915179 31.6753 31.6923 0.898226 69.6578 0.898226H73.6112V13.3693C73.6112 47.0074 46.3422 74.2764 12.7042 74.2764H0.915179V69.6408Z" stroke="#4B5158" stroke-width="0.96787"/>
<path d="M273.287 164.295C273.287 126.329 304.064 95.5522 342.029 95.5522H345.983V108.023C345.983 141.661 318.714 168.93 285.076 168.93H273.287V164.295Z" stroke="#4B5158" stroke-width="0.96787"/>
<path d="M528.372 164.295C528.372 126.062 497.378 95.0682 459.146 95.0682H454.708V108.023C454.708 141.929 482.194 169.414 516.099 169.414H528.372V164.295Z" fill="black"/>
<rect x="182.82" y="0.898226" width="72.6225" height="73.3781" stroke="#4B5158" stroke-width="0.96787"/>
<path d="M91.9231 51.863C91.9231 23.7159 114.741 0.898226 142.888 0.898226H164.509V74.1649H91.9231V51.863Z" stroke="#4B5158" stroke-width="0.96787"/>
<rect y="0.687534" width="56.0731" height="56.0731" transform="matrix(0.703841 0.710358 -0.703841 0.710358 314.014 189.92)" stroke="#4B5158" stroke-width="0.96787"/>
<path d="M0.483935 95.5522H12.3838C45.9606 95.5522 73.18 122.772 73.18 156.348V168.93H69.2266C31.2611 168.93 0.483935 138.153 0.483935 100.188V95.5522Z" stroke="#4B5158" stroke-width="0.96787"/>
<path d="M346.451 0.898226H334.551C300.974 0.898226 273.754 28.1176 273.754 61.6944V74.2764H277.708C315.673 74.2764 346.451 43.4993 346.451 5.53376V0.898226Z" stroke="#4B5158" stroke-width="0.96787"/>
<path d="M91.4919 95.5522H164.077V121.809C164.077 147.792 143.014 168.856 117.031 168.856H91.4919V95.5522Z" stroke="#4B5158" stroke-width="0.96787"/>
<rect x="455.66" y="0.898226" width="72.5856" height="73.3039" stroke="#4B5158" stroke-width="0.96787"/>
<rect x="0.915179" y="193.447" width="72.696" height="73.341" stroke="#4B5158" stroke-width="0.96787"/>
<path d="M37.1316 291.342C57.3945 291.342 73.8207 307.768 73.8207 328.031C73.8207 348.294 57.3945 364.72 37.1316 364.72L1.12468 364.72L1.12468 291.342L37.1316 291.342Z" stroke="#4B5158" stroke-width="0.96787"/>
<path d="M182.931 193.447H255.554V230.477C255.554 250.531 239.296 266.788 219.242 266.788C199.188 266.788 182.931 250.531 182.931 230.477V193.447Z" stroke="#4B5158" stroke-width="0.96787"/>
<path d="M183.029 364.93L191.011 364.93C226.711 364.93 255.651 335.99 255.651 300.29L255.651 291.552L183.029 291.552L183.029 364.93Z" stroke="#4B5158" stroke-width="0.96787"/>
<path d="M371.021 192.963H407.457C427.956 192.963 444.574 209.581 444.574 230.08C444.574 250.58 427.956 267.198 407.457 267.198H371.021V192.963Z" fill="#42B0FF"/>
<path d="M92.1319 291.344C132.098 291.608 164.457 324.626 164.716 364.609H92.1319V291.344Z" stroke="#4B5158" stroke-width="0.96787"/>
<path d="M346.548 360.085C346.548 322.119 315.771 291.342 277.805 291.342H273.962V309.505C273.962 339.979 298.666 364.683 329.141 364.683H346.548V360.085Z" stroke="#4B5158" stroke-width="0.96787"/>
<rect x="364.861" y="291.342" width="72.5856" height="73.2667" stroke="#4B5158" stroke-width="0.96787"/>
<ellipse cx="400.587" cy="132.506" rx="36.7768" ry="37.1173" transform="rotate(180 400.587 132.506)" fill="#FF682C"/>
<ellipse cx="498.696" cy="230.402" rx="36.7768" ry="37.1173" transform="rotate(180 498.696 230.402)" fill="#FFDB5E"/>
<path d="M182.39 132.506C182.39 112.27 198.643 95.8727 218.683 95.8727C238.723 95.8727 254.976 112.27 254.976 132.506C254.976 152.742 238.723 169.139 218.683 169.139C198.643 169.139 182.39 152.742 182.39 132.506Z" stroke="#4B5158" stroke-width="0.96787"/>
</svg>
