<svg width="85" height="20" viewBox="0 0 85 20" fill="none" xmlns="http://www.w3.org/2000/svg">
<path fill-rule="evenodd" clip-rule="evenodd" d="M4.23819 4.69795C4.23819 2.35985 6.13234 0.459778 8.47636 0.459778C10.8204 0.459778 12.7145 2.35985 12.7145 4.69794C15.0585 4.69795 16.9527 6.59802 16.9527 8.93611H14.8336C14.8336 7.77002 13.8806 6.81702 12.7145 6.81702V4.69795H10.5954C10.5954 3.53186 9.64245 2.57886 8.47636 2.57886C7.31027 2.57886 6.35727 3.53186 6.35727 4.69795H4.23819ZM26.8259 15.5726C25.0941 15.5726 23.7219 15.0903 22.7095 14.1258C21.6971 13.1479 21.1908 11.7548 21.1908 9.94639V6.57069C21.1908 4.76228 21.6971 3.37584 22.7095 2.41135C23.7219 1.43347 25.0941 0.94453 26.8259 0.94453C28.5444 0.94453 29.8699 1.42007 30.8024 2.37116C31.7482 3.30886 32.2211 4.60154 32.2211 6.2492V6.36976H29.6234V6.16882C29.6234 5.33829 29.3903 4.65512 28.924 4.11929C28.4711 3.58347 27.7717 3.31556 26.8259 3.31556C25.8934 3.31556 25.1607 3.60356 24.6278 4.17957C24.0949 4.75558 23.8285 5.53923 23.8285 6.53051V9.98658C23.8285 10.9645 24.0949 11.7481 24.6278 12.3375C25.1607 12.9135 25.8934 13.2015 26.8259 13.2015C27.7717 13.2015 28.4711 12.9336 28.924 12.3978C29.3903 11.8486 29.6234 11.1654 29.6234 10.3483V9.98658H32.2211V10.2679C32.2211 11.9155 31.7482 13.2149 30.8024 14.166C29.8699 15.1037 28.5444 15.5726 26.8259 15.5726ZM33.8215 15.2912V1.22584H36.3393V15.2912H33.8215ZM40.5588 14.9697C41.3447 15.3716 42.2306 15.5726 43.2164 15.5726C44.2022 15.5726 45.0881 15.3716 45.8741 14.9697C46.6601 14.5679 47.2795 13.9852 47.7325 13.2216C48.1854 12.4581 48.4119 11.5405 48.4119 10.4688V10.1473C48.4119 9.07567 48.1854 8.15807 47.7325 7.39452C47.2795 6.63097 46.6601 6.04826 45.8741 5.64639C45.0881 5.24452 44.2022 5.04359 43.2164 5.04359C42.2306 5.04359 41.3447 5.24452 40.5588 5.64639C39.7728 6.04826 39.1533 6.63097 38.7004 7.39452C38.2475 8.15807 38.021 9.07567 38.021 10.1473V10.4688C38.021 11.5405 38.2475 12.4581 38.7004 13.2216C39.1533 13.9852 39.7728 14.5679 40.5588 14.9697ZM45.1347 12.5786C44.6285 13.0743 43.9891 13.3221 43.2164 13.3221C42.4438 13.3221 41.8043 13.0743 41.2981 12.5786C40.7919 12.0696 40.5388 11.3462 40.5388 10.4085V10.2076C40.5388 9.26991 40.7919 8.55324 41.2981 8.05761C41.8043 7.54857 42.4438 7.29406 43.2164 7.29406C44.0024 7.29406 44.6418 7.54857 45.1347 8.05761C45.641 8.55324 45.8941 9.26991 45.8941 10.2076V10.4085C45.8941 11.3462 45.641 12.0696 45.1347 12.5786ZM50.1071 15.2912V5.3249H52.585V6.63097H52.9447C53.1045 6.28269 53.4043 5.95449 53.8439 5.64639C54.2835 5.3249 54.9496 5.16415 55.8421 5.16415C56.6148 5.16415 57.2875 5.34499 57.8603 5.70667C58.4465 6.05496 58.8994 6.5439 59.2191 7.1735C59.5389 7.78969 59.6987 8.51306 59.6987 9.34359V15.2912H57.1809V9.54452C57.1809 8.79437 56.9944 8.23175 56.6214 7.85667C56.2617 7.48159 55.7422 7.29406 55.0628 7.29406C54.2901 7.29406 53.6907 7.55527 53.2644 8.0777C52.8381 8.58673 52.6249 9.3034 52.6249 10.2277V15.2912H50.1071ZM61.7918 5.3249V15.2912H64.3096V5.3249H61.7918ZM61.8917 3.71742C62.2114 4.01213 62.5977 4.15948 63.0507 4.15948C63.5169 4.15948 63.9033 4.01213 64.2096 3.71742C64.516 3.42272 64.6692 3.03425 64.6692 2.552C64.6692 2.06976 64.516 1.68129 64.2096 1.38659C63.9033 1.09188 63.5169 0.94453 63.0507 0.94453C62.5977 0.94453 62.2114 1.09188 61.8917 1.38659C61.5853 1.68129 61.4321 2.06976 61.4321 2.552C61.4321 3.03425 61.5853 3.42272 61.8917 3.71742ZM68.1094 15.2912V7.41462H65.5916V5.3249H68.1094V3.4763C68.1094 2.79313 68.3092 2.2506 68.7089 1.84873C69.1218 1.43347 69.6547 1.22584 70.3075 1.22584H72.9052V3.31556H71.1867C70.8137 3.31556 70.6272 3.51649 70.6272 3.91836V5.3249H73.2249V7.41462H70.6272V15.2912H68.1094ZM75.6244 17.0997V19.3099H81.8589C82.525 19.3099 83.0579 19.1023 83.4575 18.687C83.8572 18.2852 84.057 17.7426 84.057 17.0595V5.3249H81.5392V10.3884C81.5392 11.3127 81.3261 12.0361 80.8998 12.5585C80.4735 13.0676 79.874 13.3221 79.1014 13.3221C78.422 13.3221 77.8958 13.1345 77.5228 12.7595C77.1631 12.3844 76.9832 11.8218 76.9832 11.0716V5.3249H74.4654V11.2726C74.4654 12.0897 74.6253 12.8131 74.945 13.4426C75.2647 14.0722 75.711 14.5679 76.2838 14.9296C76.87 15.2778 77.5494 15.452 78.322 15.452C78.9215 15.452 79.4144 15.3783 79.8007 15.231C80.1871 15.0836 80.4935 14.8961 80.7199 14.6683C80.9464 14.4406 81.1129 14.2129 81.2195 13.9852H81.5792V16.4968C81.5792 16.8987 81.3927 17.0997 81.0197 17.0997H75.6244ZM12.7145 13.1743V11.0552C13.8806 11.0552 14.8336 10.1022 14.8336 8.93612H16.9527C16.9527 11.2801 15.0585 13.1743 12.7145 13.1743ZM8.47631 12.8902C10.6664 12.8902 12.4304 11.1144 12.4304 8.93611C12.4304 6.74599 10.6664 4.98206 8.47631 4.98206C6.2862 4.98206 4.52227 6.74599 4.52227 8.93611C4.52227 11.1144 6.2862 12.8902 8.47631 12.8902ZM8.47631 10.9131C7.38717 10.9131 6.49929 10.0252 6.49929 8.93611C6.49929 7.84697 7.38717 6.95908 8.47631 6.95908C9.56545 6.95908 10.4533 7.84697 10.4533 8.93611C10.4533 10.0252 9.56545 10.9131 8.47631 10.9131ZM-1.52588e-05 8.93612H2.11907C2.11907 10.1022 3.07207 11.0552 4.23815 11.0552V13.1743C1.89414 13.1743 -1.52588e-05 11.2801 -1.52588e-05 8.93612ZM-2.05658e-06 8.93611H2.11908C2.11908 7.77002 3.07208 6.81702 4.23817 6.81702V4.69794C1.89415 4.69794 -2.05658e-06 6.59801 -2.05658e-06 8.93611ZM6.35727 13.1743C6.35727 14.3404 7.31027 15.2934 8.47636 15.2934C9.64245 15.2934 10.5954 14.3404 10.5954 13.1743H12.7145C12.7145 15.5183 10.8204 17.4124 8.47636 17.4124C6.13234 17.4124 4.23819 15.5183 4.23819 13.1743H6.35727Z" fill="#282828"/>
</svg>
